<?xml version="1.0" standalone="no"?>
<!DOCTYPE svg PUBLIC "-//W3C//DTD SVG 20010904//EN"
 "http://www.w3.org/TR/2001/REC-SVG-20010904/DTD/svg10.dtd">
<svg version="1.0" xmlns="http://www.w3.org/2000/svg"
 width="1756.000000pt" height="1420.000000pt" viewBox="0 0 1756.000000 1420.000000"
 preserveAspectRatio="xMidYMid meet">

<g transform="translate(0.000000,1420.000000) scale(0.100000,-0.100000)"
fill="#000000" stroke="none">
<path d="M3610 13965 c-228 -51 -417 -152 -576 -310 -134 -132 -242 -316 -284
-481 -22 -86 -40 -304 -40 -497 0 -93 -3 -129 -12 -132 -7 -2 -395 -7 -863
-12 l-850 -8 -76 -38 c-89 -44 -151 -100 -204 -183 -52 -81 -59 -111 -60 -249
0 -115 2 -123 32 -188 46 -97 136 -188 233 -235 l75 -36 245 -7 c135 -4 521
-8 858 -8 481 -1 614 -4 617 -13 2 -7 8 -134 14 -283 11 -304 18 -346 95 -509
63 -134 132 -231 236 -329 149 -140 280 -216 480 -276 l85 -25 940 -4 c585 -2
978 1 1040 7 361 37 700 283 860 624 75 162 86 216 99 519 6 146 15 270 19
275 5 4 2264 11 5020 14 4996 6 5012 6 5074 26 34 12 82 32 105 46 67 39 155
138 191 214 31 65 32 73 32 193 0 122 -1 127 -34 195 -46 94 -142 190 -236
236 l-70 34 -5040 8 c-2772 5 -5043 12 -5046 15 -4 4 -11 131 -17 282 -9 246
-13 283 -35 355 -114 373 -400 652 -779 762 l-93 27 -985 3 c-821 1 -996 0
-1050 -12z m1938 -972 c24 -23 44 -54 51 -78 16 -57 15 -1669 0 -1716 -7 -19
-21 -45 -33 -58 -47 -52 -23 -51 -913 -51 -455 1 -848 5 -873 9 -32 7 -54 19
-77 45 l-33 36 0 880 0 879 31 36 c17 19 45 39 63 44 17 5 405 10 888 10 l857
1 39 -37z"/>
<path d="M11997 9274 c-373 -68 -689 -318 -827 -655 -68 -163 -71 -183 -84
-481 -6 -152 -15 -280 -19 -285 -5 -4 -2271 -10 -5035 -13 l-5027 -5 -60 -24
c-77 -31 -128 -66 -187 -128 -80 -86 -118 -189 -118 -318 0 -183 102 -345 267
-426 l68 -34 4985 -8 c2742 -4 5013 -10 5048 -13 53 -5 63 -9 66 -27 3 -12 9
-137 14 -277 l9 -255 37 -110 c124 -369 400 -631 776 -738 74 -21 90 -22 1030
-25 639 -2 986 0 1048 8 342 39 675 285 833 615 74 155 89 220 99 440 5 105 9
225 10 267 0 53 4 81 14 91 13 12 139 15 843 19 823 5 828 5 892 27 124 43
223 131 279 249 36 75 37 79 37 197 0 118 -1 122 -37 197 -58 122 -141 201
-263 249 l-60 23 -836 4 c-459 2 -841 7 -849 12 -11 7 -16 56 -21 212 -11 291
-16 342 -45 436 -56 186 -144 332 -280 468 -139 139 -299 231 -505 291 l-94
27 -965 2 c-804 2 -978 0 -1043 -12z m1836 -943 c58 -6 72 -12 100 -39 l32
-32 3 -878 c3 -976 8 -912 -65 -962 l-37 -25 -863 -3 -863 -2 -45 41 c-27 25
-49 56 -55 78 -12 44 -13 1645 -1 1709 10 50 51 98 96 111 37 11 1603 13 1698
2z"/>
<path d="M6825 4240 c-251 -6 -288 -8 -354 -29 -377 -113 -666 -414 -765 -792
-25 -97 -46 -335 -46 -524 l0 -85 -1532 -1 c-843 -1 -1895 -4 -2339 -8 l-805
-6 -76 -38 c-100 -49 -176 -125 -225 -225 -38 -76 -38 -77 -38 -201 0 -122 1
-128 34 -199 43 -91 138 -185 238 -234 l68 -33 1340 -6 c737 -4 1789 -7 2338
-8 l997 -1 0 -119 c0 -176 18 -363 45 -477 60 -250 189 -452 389 -609 109 -85
204 -135 356 -187 l125 -43 935 -3 c634 -2 970 0 1043 8 441 45 829 388 938
830 21 86 39 300 39 478 l0 122 1348 1 c741 1 2344 4 3562 8 l2215 6 70 34
c94 46 190 142 236 236 33 68 34 73 34 195 0 122 -1 127 -34 195 -45 92 -141
188 -235 235 l-70 35 -1280 6 c-705 4 -2308 7 -3563 8 l-2283 1 0 93 c0 195
-20 424 -45 522 -22 88 -115 306 -140 330 -6 6 -30 35 -53 65 -55 75 -173 187
-248 238 -172 115 -331 170 -534 183 -150 9 -1247 8 -1685 -1z m1645 -951 c50
-23 81 -61 91 -111 10 -55 10 -1627 0 -1691 -6 -36 -17 -58 -47 -88 l-38 -39
-878 0 -879 0 -43 44 c-34 34 -46 54 -51 87 -3 24 -5 415 -3 869 3 804 4 826
23 859 28 48 67 74 123 82 26 4 412 6 857 5 724 -1 814 -3 845 -17z"/>
</g>
</svg>
