<?xml version="1.0" standalone="no"?>
<!DOCTYPE svg PUBLIC "-//W3C//DTD SVG 20010904//EN"
 "http://www.w3.org/TR/2001/REC-SVG-20010904/DTD/svg10.dtd">
<svg version="1.0" xmlns="http://www.w3.org/2000/svg"
 width="240.000000pt" height="263.000000pt" viewBox="0 0 240.000000 263.000000"
 preserveAspectRatio="xMidYMid meet">

<g transform="translate(0.000000,263.000000) scale(0.100000,-0.100000)"
fill="#000000" stroke="none">
<path d="M1543 1808 l-373 -373 -363 363 c-345 345 -364 362 -399 362 -42 0
-78 -36 -78 -79 0 -37 802 -841 840 -841 19 0 114 90 433 408 225 224 413 417
418 430 10 26 -4 69 -29 88 -9 8 -31 14 -47 14 -26 0 -76 -46 -402 -372z"/>
<path d="M1905 1406 c-16 -8 -190 -174 -385 -370 l-355 -356 -360 360 c-327
326 -364 360 -393 360 -46 0 -82 -38 -82 -87 0 -36 15 -52 400 -438 395 -395
400 -400 440 -400 40 0 45 5 445 405 270 271 406 414 411 433 9 40 -12 84 -48
96 -38 13 -36 13 -73 -3z"/>
</g>
</svg>
