<?xml version="1.0" standalone="no"?>
<!DOCTYPE svg PUBLIC "-//W3C//DTD SVG 20010904//EN"
 "http://www.w3.org/TR/2001/REC-SVG-20010904/DTD/svg10.dtd">
<svg version="1.0" xmlns="http://www.w3.org/2000/svg"
 width="1600.000000pt" height="1600.000000pt" viewBox="0 0 1600.000000 1600.000000"
 preserveAspectRatio="xMidYMid meet">

<g transform="translate(0.000000,1600.000000) scale(0.100000,-0.100000)"
fill="#000000" stroke="#000000", stroke-width ="8">
<path d="M3444 15360 c-64 -9 -146 -53 -186 -99 -17 -19 -43 -60 -57 -91 l-26
-55 -3 -5587 -2 -5588 320 0 320 0 0 5395 0 5395 5080 0 5080 0 -3 -6112 -2
-6113 -23 -99 c-120 -519 -520 -902 -1036 -991 -315 -54 -675 28 -935 213
-243 173 -427 439 -502 727 -31 117 -32 128 -38 415 -7 284 -8 297 -31 345
-34 70 -108 139 -175 164 l-56 21 -4819 0 -4819 0 -55 -20 c-72 -27 -139 -88
-173 -158 -28 -57 -28 -58 -31 -292 -5 -344 18 -523 99 -764 198 -594 681
-1057 1285 -1230 67 -19 168 -43 225 -53 99 -17 339 -18 4979 -21 3392 -2
4911 0 4995 8 451 40 862 231 1180 547 253 251 420 544 511 892 58 223 54
-241 54 6610 0 5487 -2 6294 -15 6330 -32 92 -102 163 -197 199 -40 16 -450
17 -5468 18 -2984 1 -5448 -2 -5476 -6z m7346 -12697 c2 -72 25 -272 41 -353
58 -290 211 -604 408 -838 l61 -72 -4124 0 c-4571 0 -4191 -6 -4406 66 -479
160 -830 610 -857 1097 l-6 107 4442 0 c2442 0 4441 -3 4441 -7z"/>
<path d="M11445 12818 c-54 -10 -2805 -578 -3523 -727 -238 -50 -452 -99 -475
-109 -51 -24 -100 -73 -124 -127 -17 -38 -18 -150 -23 -2285 -6 -2513 2 -2282
-79 -2352 -82 -70 -204 -94 -551 -107 -253 -10 -363 -28 -531 -87 -192 -67
-343 -159 -474 -288 -132 -131 -206 -256 -246 -416 -19 -73 -21 -103 -16 -220
13 -318 134 -553 362 -705 197 -131 416 -185 752 -185 330 0 606 62 856 192
247 129 449 348 531 576 l31 87 5 2130 c5 2107 5 2130 25 2164 11 19 31 42 45
52 24 18 470 130 2010 505 757 184 893 215 955 217 57 1 88 -13 113 -50 16
-26 17 -110 17 -1418 l0 -1390 -23 -43 c-61 -115 -197 -154 -587 -167 -224 -8
-376 -31 -522 -80 -324 -108 -575 -314 -692 -566 -53 -116 -71 -195 -71 -321
0 -497 281 -822 788 -914 122 -22 393 -29 533 -15 402 42 716 175 947 403 93
92 152 173 201 280 71 154 66 -93 66 2968 0 2630 -1 2778 -18 2832 -39 128
-145 190 -282 166z"/>
</g>
</svg>
