<?xml version="1.0" standalone="no"?>
<!DOCTYPE svg PUBLIC "-//W3C//DTD SVG 20010904//EN"
 "http://www.w3.org/TR/2001/REC-SVG-20010904/DTD/svg10.dtd">
<svg version="1.0" xmlns="http://www.w3.org/2000/svg"
 width="323.000000pt" height="323.000000pt" viewBox="0 0 323.000000 323.000000"
 preserveAspectRatio="xMidYMid meet">

<g transform="translate(0.000000,323.000000) scale(0.100000,-0.100000)"
fill="#000000" stroke="none">
<path d="M1454 3210 c-316 -34 -630 -170 -872 -380 -165 -143 -291 -307 -387
-505 -187 -384 -214 -803 -78 -1205 63 -186 172 -377 301 -526 424 -490 1101
-675 1712 -467 468 159 834 525 993 993 111 326 113 683 6 1005 -67 199 -180
397 -317 551 -344 390 -848 588 -1358 534z m327 -241 c612 -79 1089 -556 1168
-1168 57 -439 -117 -891 -454 -1182 -616 -532 -1550 -403 -2000 276 -355 535
-284 1234 171 1689 295 295 709 438 1115 385z"/>
<path d="M1463 2890 c-481 -61 -892 -396 -1043 -848 -51 -154 -63 -232 -63
-407 0 -175 12 -253 63 -407 121 -363 425 -667 785 -787 158 -52 235 -64 410
-64 175 0 253 12 407 63 423 141 735 499 834 955 24 111 24 369 0 480 -58 267
-179 489 -365 668 -177 170 -391 282 -634 332 -97 19 -297 27 -394 15z"/>
</g>
</svg>
