<?xml version="1.0" standalone="no"?>
<!DOCTYPE svg PUBLIC "-//W3C//DTD SVG 20010904//EN"
 "http://www.w3.org/TR/2001/REC-SVG-20010904/DTD/svg10.dtd">
<svg version="1.0" xmlns="http://www.w3.org/2000/svg"
 width="920.000000pt" height="1060.000000pt" viewBox="0 0 920.000000 1060.000000"
 preserveAspectRatio="xMidYMid meet">

<g transform="translate(0.000000,1060.000000) scale(0.100000,-0.100000)"
fill="#000000" stroke="none">
<path d="M4335 10173 c-16 -2 -75 -15 -130 -29 -448 -112 -841 -428 -1050
-844 -96 -192 -146 -349 -165 -525 -9 -89 -30 -478 -30 -577 l0 -38 410 0 410
0 -2 -207 -3 -208 -409 -3 -409 -2 7 -188 c4 -103 8 -188 9 -189 1 0 183 -4
405 -8 l402 -8 0 -207 0 -207 -402 -8 c-222 -4 -404 -8 -405 -8 -1 -1 -5 -86
-9 -189 l-7 -188 409 -2 409 -3 3 -207 2 -208 -118 0 c-65 0 -248 -3 -407 -7
l-288 -6 6 -461 c8 -513 15 -619 53 -751 74 -258 203 -493 370 -674 233 -253
483 -403 823 -494 116 -31 117 -31 381 -31 l265 0 116 31 c320 87 559 230 788
469 62 65 138 157 170 205 118 175 230 444 251 600 15 114 29 401 36 770 l7
336 -69 6 c-38 4 -221 7 -407 7 l-337 0 2 208 3 207 403 3 402 2 0 195 0 195
-405 0 -405 0 0 210 0 210 405 0 405 0 0 195 0 195 -402 2 -403 3 -3 208 -2
207 118 0 c65 0 248 3 407 7 l288 6 -7 199 c-16 498 -65 717 -225 1002 -109
196 -305 407 -492 533 -169 112 -319 179 -529 235 -112 30 -121 31 -365 34
-137 1 -263 0 -280 -3z"/>
<path d="M1643 6095 c-121 -34 -214 -109 -265 -213 l-33 -67 2 -265 c2 -348
19 -665 44 -818 73 -442 306 -967 606 -1364 283 -374 625 -673 1030 -899 293
-164 564 -264 948 -349 105 -23 196 -47 203 -52 9 -8 12 -102 10 -432 l-3
-421 -1129 -7 c-1123 -7 -1397 -15 -1493 -43 -64 -19 -141 -98 -183 -187 -27
-56 -30 -73 -30 -158 0 -88 3 -101 34 -165 42 -88 99 -153 166 -189 42 -23 70
-29 153 -36 157 -13 3429 -21 4727 -12 l1155 8 55 35 c72 47 132 115 175 202
31 62 35 79 35 147 0 71 -4 85 -40 158 -45 89 -112 165 -165 188 -65 27 -221
34 -1030 44 -445 5 -991 13 -1212 16 l-403 6 0 424 0 424 23 5 c12 3 85 19
162 35 718 156 1209 422 1715 930 437 438 697 890 855 1485 62 233 79 389 94
830 12 335 5 441 -33 519 -36 74 -128 163 -206 200 -57 27 -76 31 -150 31 -77
0 -92 -3 -162 -37 -87 -41 -160 -104 -189 -160 -25 -49 -36 -143 -49 -433 -25
-543 -68 -804 -175 -1067 -306 -750 -930 -1298 -1694 -1487 -246 -61 -283 -65
-591 -65 -316 0 -383 8 -617 69 -545 143 -1020 463 -1358 916 -190 255 -345
587 -419 899 -42 176 -55 302 -66 640 -12 366 -20 441 -55 510 -34 67 -115
144 -191 181 -77 38 -170 47 -251 24z"/>
</g>
</svg>
