<?xml version="1.0" standalone="no"?>
<!DOCTYPE svg PUBLIC "-//W3C//DTD SVG 20010904//EN"
 "http://www.w3.org/TR/2001/REC-SVG-20010904/DTD/svg10.dtd">
<svg version="1.0" xmlns="http://www.w3.org/2000/svg"
 width="240.000000pt" height="263.000000pt" viewBox="0 0 240.000000 263.000000"
 preserveAspectRatio="xMidYMid meet">

<g transform="translate(0.000000,263.000000) scale(0.100000,-0.100000)"
fill="#000000" stroke="none">
<path d="M1135 2151 c-11 -5 -197 -186 -412 -403 -378 -379 -393 -395 -393
-431 0 -49 36 -87 82 -87 29 0 66 34 393 360 l360 360 355 -356 c207 -207 369
-362 388 -370 68 -30 135 23 118 93 -5 19 -140 161 -409 430 -416 417 -429
427 -482 404z"/>
<path d="M737 982 c-437 -437 -430 -429 -386 -486 15 -20 29 -26 57 -26 35 0
54 17 399 362 l363 363 373 -373 c326 -326 376 -372 402 -372 17 0 38 6 47 14
25 19 39 62 29 89 -5 12 -193 205 -418 430 -319 317 -414 407 -433 407 -20 0
-114 -89 -433 -408z"/>
</g>
</svg>
